<svg xmlns="http://www.w3.org/2000/svg" xmlns:xlink="http://www.w3.org/1999/xlink" width="1512" zoomAndPan="magnify" viewBox="0 0 1134 226.499993" height="302" preserveAspectRatio="xMidYMid meet" version="1.0"><defs><g/><clipPath id="af785abcaf"><path d="M 0.0351562 0.738281 L 758.203125 0.738281 L 758.203125 181.296875 L 0.0351562 181.296875 Z M 0.0351562 0.738281 " clip-rule="nonzero"/></clipPath><clipPath id="726af2648f"><rect x="0" width="759" y="0" height="182"/></clipPath><clipPath id="d189525837"><rect x="0" width="759" y="0" height="182"/></clipPath></defs><g transform="matrix(1, 0, 0, 1, 188, 28)"><g clip-path="url(#d189525837)"><g clip-path="url(#af785abcaf)"><g><g clip-path="url(#726af2648f)"><g fill="#000000" fill-opacity="1"><g transform="translate(0.782922, 146.136384)"><g><path d="M 59.453125 -114.640625 C 73.859375 -114.640625 85.703125 -111.71875 94.984375 -105.875 C 104.265625 -100.03125 109.015625 -91.378906 109.234375 -79.921875 L 109.234375 -77.953125 L 75.328125 -77.953125 L 75.328125 -78.609375 C 75.328125 -81.878906 74.125 -84.609375 71.71875 -86.796875 C 69.320312 -88.984375 65.664062 -90.078125 60.75 -90.078125 C 55.945312 -90.078125 52.265625 -89.363281 49.703125 -87.9375 C 47.140625 -86.519531 45.859375 -84.773438 45.859375 -82.703125 C 45.859375 -79.753906 47.601562 -77.566406 51.09375 -76.140625 C 54.582031 -74.722656 60.207031 -73.253906 67.96875 -71.734375 C 77.03125 -69.878906 84.476562 -67.941406 90.3125 -65.921875 C 96.15625 -63.898438 101.257812 -60.59375 105.625 -56 C 109.988281 -51.414062 112.226562 -45.195312 112.34375 -37.34375 C 112.34375 -24.019531 107.835938 -14.132812 98.828125 -7.6875 C 89.828125 -1.25 77.789062 1.96875 62.71875 1.96875 C 45.144531 1.96875 31.472656 -0.976562 21.703125 -6.875 C 11.929688 -12.769531 7.046875 -23.195312 7.046875 -38.15625 L 41.265625 -38.15625 C 41.265625 -32.476562 42.738281 -28.679688 45.6875 -26.765625 C 48.632812 -24.859375 53.222656 -23.90625 59.453125 -23.90625 C 64.035156 -23.90625 67.828125 -24.394531 70.828125 -25.375 C 73.828125 -26.363281 75.328125 -28.382812 75.328125 -31.4375 C 75.328125 -34.164062 73.660156 -36.210938 70.328125 -37.578125 C 67.003906 -38.941406 61.578125 -40.390625 54.046875 -41.921875 C 44.867188 -43.890625 37.273438 -45.9375 31.265625 -48.0625 C 25.265625 -50.195312 20.023438 -53.71875 15.546875 -58.625 C 11.078125 -63.539062 8.84375 -70.203125 8.84375 -78.609375 C 8.84375 -90.941406 13.617188 -100.03125 23.171875 -105.875 C 32.722656 -111.71875 44.816406 -114.640625 59.453125 -114.640625 Z M 59.453125 -114.640625 "/></g></g></g><g fill="#000000" fill-opacity="1"><g transform="translate(119.016801, 146.136384)"><g><path d="M 87.609375 0 L 82.859375 -15.890625 L 43.390625 -15.890625 L 38.65625 0 L 1.640625 0 L 42.75 -112.671875 L 84.828125 -112.671875 L 125.9375 0 Z M 50.9375 -41.109375 L 75.328125 -41.109375 L 63.546875 -81.234375 L 62.890625 -81.234375 Z M 50.9375 -41.109375 "/></g></g></g><g fill="#000000" fill-opacity="1"><g transform="translate(243.473477, 146.136384)"><g><path d="M 68.78125 -114.640625 C 79.59375 -114.640625 89.3125 -113 97.9375 -109.71875 C 106.5625 -106.445312 113.410156 -101.617188 118.484375 -95.234375 C 123.554688 -88.847656 126.09375 -81.066406 126.09375 -71.890625 L 91.546875 -71.890625 C 91.546875 -76.585938 89.46875 -80.378906 85.3125 -83.265625 C 81.164062 -86.160156 76.144531 -87.609375 70.25 -87.609375 C 61.738281 -87.609375 55.296875 -85.34375 50.921875 -80.8125 C 46.554688 -76.28125 44.375 -69.867188 44.375 -61.578125 L 44.375 -51.09375 C 44.375 -42.800781 46.554688 -36.390625 50.921875 -31.859375 C 55.296875 -27.328125 61.738281 -25.0625 70.25 -25.0625 C 76.144531 -25.0625 81.164062 -26.453125 85.3125 -29.234375 C 89.46875 -32.015625 91.546875 -35.585938 91.546875 -39.953125 L 66 -39.953125 L 66 -62.890625 L 126.09375 -62.890625 L 126.09375 0 L 107.4375 0 L 103.828125 -11.140625 C 93.566406 -2.398438 80.140625 1.96875 63.546875 1.96875 C 44.867188 1.96875 30.835938 -2.914062 21.453125 -12.6875 C 12.066406 -22.457031 7.375 -37.003906 7.375 -56.328125 C 7.375 -75.441406 12.691406 -89.9375 23.328125 -99.8125 C 33.972656 -109.695312 49.125 -114.640625 68.78125 -114.640625 Z M 68.78125 -114.640625 "/></g></g></g><g fill="#000000" fill-opacity="1"><g transform="translate(379.884569, 146.136384)"><g><path d="M 104.640625 -144.9375 C 104.640625 -141 103.65625 -137.226562 101.6875 -133.625 C 99.726562 -130.03125 97 -127.113281 93.5 -124.875 C 90.007812 -122.632812 86.082031 -121.515625 81.71875 -121.515625 C 79.3125 -121.515625 76.988281 -121.785156 74.75 -122.328125 C 72.519531 -122.878906 69.65625 -123.753906 66.15625 -124.953125 C 63.425781 -125.929688 61.078125 -126.691406 59.109375 -127.234375 C 57.148438 -127.785156 55.242188 -128.0625 53.390625 -128.0625 C 51.316406 -128.0625 49.566406 -127.460938 48.140625 -126.265625 C 46.722656 -125.066406 45.6875 -123.484375 45.03125 -121.515625 L 31.765625 -121.515625 C 31.765625 -125.441406 32.75 -129.207031 34.71875 -132.8125 C 36.6875 -136.414062 39.414062 -139.335938 42.90625 -141.578125 C 46.394531 -143.816406 50.328125 -144.9375 54.703125 -144.9375 C 57.097656 -144.9375 59.414062 -144.660156 61.65625 -144.109375 C 63.894531 -143.566406 66.757812 -142.695312 70.25 -141.5 C 72.976562 -140.507812 75.328125 -139.738281 77.296875 -139.1875 C 79.265625 -138.644531 81.175781 -138.375 83.03125 -138.375 C 85.101562 -138.375 86.847656 -138.972656 88.265625 -140.171875 C 89.691406 -141.378906 90.726562 -142.96875 91.375 -144.9375 Z M 92.6875 0 L 45.359375 -54.703125 L 45.359375 0 L 12.125 0 L 12.125 -112.671875 L 43.71875 -112.671875 L 91.046875 -57.15625 L 91.046875 -112.671875 L 124.296875 -112.671875 L 124.296875 0 Z M 92.6875 0 "/></g></g></g><g fill="#000000" fill-opacity="1"><g transform="translate(516.295707, 146.136384)"><g><path d="M 87.609375 0 L 82.859375 -15.890625 L 43.390625 -15.890625 L 38.65625 0 L 1.640625 0 L 42.75 -112.671875 L 84.828125 -112.671875 L 125.9375 0 Z M 50.9375 -41.109375 L 75.328125 -41.109375 L 63.546875 -81.234375 L 62.890625 -81.234375 Z M 50.9375 -41.109375 "/></g></g></g><g fill="#000000" fill-opacity="1"><g transform="translate(629.780311, 146.136384)"><g><path d="M 82.046875 0 L 45.859375 0 L 45.859375 -43.71875 L 1.140625 -112.671875 L 42.75 -112.671875 L 64.359375 -75.171875 L 65.015625 -75.171875 L 86.625 -112.671875 L 126.09375 -112.671875 L 82.046875 -43.71875 Z M 82.046875 0 "/></g></g></g></g></g></g></g></g></svg>