<svg xmlns="http://www.w3.org/2000/svg" xmlns:xlink="http://www.w3.org/1999/xlink" width="1512" zoomAndPan="magnify" viewBox="0 0 1134 226.499993" height="302" preserveAspectRatio="xMidYMid meet" version="1.0"><defs><g/><clipPath id="f1c03a18ab"><path d="M 0.929688 0.890625 L 1060.589844 0.890625 L 1060.589844 179.296875 L 0.929688 179.296875 Z M 0.929688 0.890625 " clip-rule="nonzero"/></clipPath><clipPath id="f18e4ca1e4"><rect x="0" width="1061" y="0" height="180"/></clipPath><clipPath id="271e365dd7"><rect x="0" width="1061" y="0" height="180"/></clipPath></defs><g transform="matrix(1, 0, 0, 1, 36, 30)"><g clip-path="url(#271e365dd7)"><g clip-path="url(#f1c03a18ab)"><g><g clip-path="url(#f18e4ca1e4)"><g fill="#000000" fill-opacity="1"><g transform="translate(1.56217, 144.136384)"><g><path d="M 65.828125 -114.640625 C 82.535156 -114.640625 95.75 -110.460938 105.46875 -102.109375 C 115.1875 -93.753906 120.046875 -81.828125 120.046875 -66.328125 L 85.484375 -66.328125 C 85.484375 -72.878906 83.765625 -78.0625 80.328125 -81.875 C 76.890625 -85.695312 72.003906 -87.609375 65.671875 -87.609375 C 58.359375 -87.609375 52.976562 -85.316406 49.53125 -80.734375 C 46.09375 -76.148438 44.375 -69.765625 44.375 -61.578125 L 44.375 -51.09375 C 44.375 -43.007812 46.09375 -36.648438 49.53125 -32.015625 C 52.976562 -27.378906 58.25 -25.0625 65.34375 -25.0625 C 72.332031 -25.0625 77.625 -26.859375 81.21875 -30.453125 C 84.820312 -34.054688 86.625 -39.132812 86.625 -45.6875 L 120.046875 -45.6875 C 120.046875 -30.289062 115.320312 -18.5 105.875 -10.3125 C 96.425781 -2.125 83.078125 1.96875 65.828125 1.96875 C 46.617188 1.96875 32.070312 -2.941406 22.1875 -12.765625 C 12.3125 -22.597656 7.375 -37.117188 7.375 -56.328125 C 7.375 -75.546875 12.3125 -90.066406 22.1875 -99.890625 C 32.070312 -109.722656 46.617188 -114.640625 65.828125 -114.640625 Z M 65.828125 -114.640625 "/></g></g></g><g fill="#000000" fill-opacity="1"><g transform="translate(128.96655, 144.136384)"><g><path d="M 87.609375 0 L 82.859375 -15.890625 L 43.390625 -15.890625 L 38.65625 0 L 1.640625 0 L 42.75 -112.671875 L 84.828125 -112.671875 L 125.9375 0 Z M 50.9375 -41.109375 L 75.328125 -41.109375 L 63.546875 -81.234375 L 62.890625 -81.234375 Z M 50.9375 -41.109375 "/></g></g></g><g fill="#000000" fill-opacity="1"><g transform="translate(256.370931, 144.136384)"><g><path d="M 119.0625 -78.109375 C 119.0625 -71.234375 117.203125 -65.007812 113.484375 -59.4375 C 109.773438 -53.875 104.375 -49.785156 97.28125 -47.171875 L 122.328125 0 L 81.71875 0 L 61.734375 -41.109375 L 48.3125 -41.109375 L 48.3125 0 L 12.125 0 L 12.125 -112.671875 L 81.0625 -112.671875 C 89.144531 -112.671875 96.050781 -111.113281 101.78125 -108 C 107.507812 -104.894531 111.820312 -100.691406 114.71875 -95.390625 C 117.613281 -90.097656 119.0625 -84.335938 119.0625 -78.109375 Z M 82.203125 -76.640625 C 82.203125 -79.585938 81.21875 -82.039062 79.25 -84 C 77.289062 -85.96875 74.894531 -86.953125 72.0625 -86.953125 L 48.3125 -86.953125 L 48.3125 -66.15625 L 72.0625 -66.15625 C 74.894531 -66.15625 77.289062 -67.164062 79.25 -69.1875 C 81.21875 -71.207031 82.203125 -73.691406 82.203125 -76.640625 Z M 82.203125 -76.640625 "/></g></g></g><g fill="#000000" fill-opacity="1"><g transform="translate(383.775312, 144.136384)"><g><path d="M 87.609375 0 L 82.859375 -15.890625 L 43.390625 -15.890625 L 38.65625 0 L 1.640625 0 L 42.75 -112.671875 L 84.828125 -112.671875 L 125.9375 0 Z M 50.9375 -41.109375 L 75.328125 -41.109375 L 63.546875 -81.234375 L 62.890625 -81.234375 Z M 50.9375 -41.109375 "/></g></g></g><g fill="#000000" fill-opacity="1"><g transform="translate(511.179692, 144.136384)"><g><path d="M 108.90625 0 L 108.90625 -40.609375 C 108.90625 -45.628906 109.09375 -50.785156 109.46875 -56.078125 C 109.851562 -61.378906 110.265625 -65.832031 110.703125 -69.4375 C 111.140625 -73.039062 111.414062 -75.332031 111.53125 -76.3125 L 110.875 -76.3125 L 90.078125 0 L 61.734375 0 L 40.78125 -76.15625 L 40.125 -76.15625 C 40.226562 -75.164062 40.523438 -72.894531 41.015625 -69.34375 C 41.515625 -65.800781 41.984375 -61.378906 42.421875 -56.078125 C 42.859375 -50.785156 43.078125 -45.628906 43.078125 -40.609375 L 43.078125 0 L 9.828125 0 L 9.828125 -112.671875 L 60.921875 -112.671875 L 77.953125 -47.65625 L 78.609375 -47.65625 L 95.46875 -112.671875 L 144.765625 -112.671875 L 144.765625 0 Z M 108.90625 0 "/></g></g></g><g fill="#000000" fill-opacity="1"><g transform="translate(665.76805, 144.136384)"><g><path d="M 68.125 -114.640625 C 87.5625 -114.640625 102.570312 -109.671875 113.15625 -99.734375 C 123.75 -89.796875 129.046875 -75.328125 129.046875 -56.328125 C 129.046875 -37.335938 123.75 -22.875 113.15625 -12.9375 C 102.570312 -3 87.5625 1.96875 68.125 1.96875 C 48.6875 1.96875 33.703125 -2.96875 23.171875 -12.84375 C 12.640625 -22.726562 7.375 -37.222656 7.375 -56.328125 C 7.375 -75.441406 12.640625 -89.9375 23.171875 -99.8125 C 33.703125 -109.695312 48.6875 -114.640625 68.125 -114.640625 Z M 68.125 -87.609375 C 60.375 -87.609375 54.476562 -85.257812 50.4375 -80.5625 C 46.394531 -75.875 44.375 -69.546875 44.375 -61.578125 L 44.375 -51.09375 C 44.375 -43.125 46.394531 -36.789062 50.4375 -32.09375 C 54.476562 -27.40625 60.375 -25.0625 68.125 -25.0625 C 75.875 -25.0625 81.796875 -27.40625 85.890625 -32.09375 C 89.984375 -36.789062 92.03125 -43.125 92.03125 -51.09375 L 92.03125 -61.578125 C 92.03125 -69.546875 89.984375 -75.875 85.890625 -80.5625 C 81.796875 -85.257812 75.875 -87.609375 68.125 -87.609375 Z M 68.125 -87.609375 "/></g></g></g><g fill="#000000" fill-opacity="1"><g transform="translate(796.611263, 144.136384)"><g><path d="M 87.609375 0 L 82.859375 -15.890625 L 43.390625 -15.890625 L 38.65625 0 L 1.640625 0 L 42.75 -112.671875 L 84.828125 -112.671875 L 125.9375 0 Z M 50.9375 -41.109375 L 75.328125 -41.109375 L 63.546875 -81.234375 L 62.890625 -81.234375 Z M 50.9375 -41.109375 "/></g></g></g><g fill="#000000" fill-opacity="1"><g transform="translate(924.015644, 144.136384)"><g><path d="M 92.6875 0 L 45.359375 -54.703125 L 45.359375 0 L 12.125 0 L 12.125 -112.671875 L 43.71875 -112.671875 L 91.046875 -57.15625 L 91.046875 -112.671875 L 124.296875 -112.671875 L 124.296875 0 Z M 92.6875 0 "/></g></g></g></g></g></g></g></g></svg>