<svg xmlns="http://www.w3.org/2000/svg" xmlns:xlink="http://www.w3.org/1999/xlink" width="1512" zoomAndPan="magnify" viewBox="0 0 1134 226.499993" height="302" preserveAspectRatio="xMidYMid meet" version="1.0"><defs><g/><clipPath id="f9752ef1fb"><path d="M 0.597656 0.890625 L 977.164062 0.890625 L 977.164062 179.296875 L 0.597656 179.296875 Z M 0.597656 0.890625 " clip-rule="nonzero"/></clipPath><clipPath id="57cd89d226"><rect x="0" width="978" y="0" height="180"/></clipPath><clipPath id="76b4a1703e"><rect x="0" width="978" y="0" height="180"/></clipPath></defs><g transform="matrix(1, 0, 0, 1, 78, 30)"><g clip-path="url(#76b4a1703e)"><g clip-path="url(#f9752ef1fb)"><g><g clip-path="url(#57cd89d226)"><g fill="#000000" fill-opacity="1"><g transform="translate(1.39169, 144.136384)"><g><path d="M 76.96875 -83.84375 L 76.96875 0 L 40.78125 0 L 40.78125 -83.84375 L 3.765625 -83.84375 L 3.765625 -112.671875 L 113.8125 -112.671875 L 113.8125 -83.84375 Z M 76.96875 -83.84375 "/></g></g></g><g fill="#000000" fill-opacity="1"><g transform="translate(119.625569, 144.136384)"><g><path d="M 13.75 0 L 13.75 -112.671875 L 49.953125 -112.671875 L 49.953125 0 Z M 13.75 0 "/></g></g></g><g fill="#000000" fill-opacity="1"><g transform="translate(183.327759, 144.136384)"><g><path d="M 92.6875 0 L 45.359375 -54.703125 L 45.359375 0 L 12.125 0 L 12.125 -112.671875 L 43.71875 -112.671875 L 91.046875 -57.15625 L 91.046875 -112.671875 L 124.296875 -112.671875 L 124.296875 0 Z M 92.6875 0 "/></g></g></g><g fill="#000000" fill-opacity="1"><g transform="translate(318.101264, 144.136384)"><g><path d="M 87.609375 0 L 82.859375 -15.890625 L 43.390625 -15.890625 L 38.65625 0 L 1.640625 0 L 42.75 -112.671875 L 84.828125 -112.671875 L 125.9375 0 Z M 50.9375 -41.109375 L 75.328125 -41.109375 L 63.546875 -81.234375 L 62.890625 -81.234375 Z M 50.9375 -41.109375 "/></g></g></g><g fill="#000000" fill-opacity="1"><g transform="translate(445.505644, 144.136384)"><g><path d="M 108.90625 0 L 108.90625 -40.609375 C 108.90625 -45.628906 109.09375 -50.785156 109.46875 -56.078125 C 109.851562 -61.378906 110.265625 -65.832031 110.703125 -69.4375 C 111.140625 -73.039062 111.414062 -75.332031 111.53125 -76.3125 L 110.875 -76.3125 L 90.078125 0 L 61.734375 0 L 40.78125 -76.15625 L 40.125 -76.15625 C 40.226562 -75.164062 40.523438 -72.894531 41.015625 -69.34375 C 41.515625 -65.800781 41.984375 -61.378906 42.421875 -56.078125 C 42.859375 -50.785156 43.078125 -45.628906 43.078125 -40.609375 L 43.078125 0 L 9.828125 0 L 9.828125 -112.671875 L 60.921875 -112.671875 L 77.953125 -47.65625 L 78.609375 -47.65625 L 95.46875 -112.671875 L 144.765625 -112.671875 L 144.765625 0 Z M 108.90625 0 "/></g></g></g><g fill="#000000" fill-opacity="1"><g transform="translate(600.094003, 144.136384)"><g><path d="M 87.125 -112.671875 C 92.800781 -112.671875 98.015625 -111.492188 102.765625 -109.140625 C 107.515625 -106.796875 111.28125 -103.492188 114.0625 -99.234375 C 116.84375 -94.984375 118.234375 -90.238281 118.234375 -85 C 118.234375 -71.132812 111.957031 -62.398438 99.40625 -58.796875 L 99.40625 -58.140625 C 113.707031 -54.859375 120.859375 -45.46875 120.859375 -29.96875 C 120.859375 -24.070312 119.410156 -18.859375 116.515625 -14.328125 C 113.617188 -9.796875 109.660156 -6.273438 104.640625 -3.765625 C 99.617188 -1.253906 94.109375 0 88.109375 0 L 12.125 0 L 12.125 -112.671875 Z M 48.3125 -68.78125 L 73.203125 -68.78125 C 75.609375 -68.78125 77.601562 -69.625 79.1875 -71.3125 C 80.769531 -73.007812 81.5625 -75.113281 81.5625 -77.625 L 81.5625 -79.265625 C 81.5625 -81.660156 80.738281 -83.703125 79.09375 -85.390625 C 77.457031 -87.085938 75.492188 -87.9375 73.203125 -87.9375 L 48.3125 -87.9375 Z M 48.3125 -26.203125 L 75.828125 -26.203125 C 78.222656 -26.203125 80.210938 -27.046875 81.796875 -28.734375 C 83.378906 -30.429688 84.171875 -32.535156 84.171875 -35.046875 L 84.171875 -36.6875 C 84.171875 -39.195312 83.378906 -41.296875 81.796875 -42.984375 C 80.210938 -44.679688 78.222656 -45.53125 75.828125 -45.53125 L 48.3125 -45.53125 Z M 48.3125 -26.203125 "/></g></g></g><g fill="#000000" fill-opacity="1"><g transform="translate(724.714418, 144.136384)"><g><path d="M 87.609375 0 L 82.859375 -15.890625 L 43.390625 -15.890625 L 38.65625 0 L 1.640625 0 L 42.75 -112.671875 L 84.828125 -112.671875 L 125.9375 0 Z M 50.9375 -41.109375 L 75.328125 -41.109375 L 63.546875 -81.234375 L 62.890625 -81.234375 Z M 50.9375 -41.109375 "/></g></g></g><g fill="#000000" fill-opacity="1"><g transform="translate(849.171046, 144.136384)"><g><path d="M 65.828125 -114.640625 C 82.535156 -114.640625 95.75 -110.460938 105.46875 -102.109375 C 115.1875 -93.753906 120.046875 -81.828125 120.046875 -66.328125 L 85.484375 -66.328125 C 85.484375 -72.878906 83.765625 -78.0625 80.328125 -81.875 C 76.890625 -85.695312 72.003906 -87.609375 65.671875 -87.609375 C 58.359375 -87.609375 52.976562 -85.316406 49.53125 -80.734375 C 46.09375 -76.148438 44.375 -69.765625 44.375 -61.578125 L 44.375 -51.09375 C 44.375 -43.007812 46.09375 -36.648438 49.53125 -32.015625 C 52.976562 -27.378906 58.25 -25.0625 65.34375 -25.0625 C 72.332031 -25.0625 77.625 -26.859375 81.21875 -30.453125 C 84.820312 -34.054688 86.625 -39.132812 86.625 -45.6875 L 120.046875 -45.6875 C 120.046875 -30.289062 115.320312 -18.5 105.875 -10.3125 C 96.425781 -2.125 83.078125 1.96875 65.828125 1.96875 C 46.617188 1.96875 32.070312 -2.941406 22.1875 -12.765625 C 12.3125 -22.597656 7.375 -37.117188 7.375 -56.328125 C 7.375 -75.546875 12.3125 -90.066406 22.1875 -99.890625 C 32.070312 -109.722656 46.617188 -114.640625 65.828125 -114.640625 Z M 65.828125 -114.640625 "/></g></g></g></g></g></g></g></g></svg>