<svg xmlns="http://www.w3.org/2000/svg" xmlns:xlink="http://www.w3.org/1999/xlink" width="1512" zoomAndPan="magnify" viewBox="0 0 1134 226.499993" height="302" preserveAspectRatio="xMidYMid meet" version="1.0"><defs><g/><clipPath id="042bfd874c"><path d="M 0.632812 0.890625 L 899.609375 0.890625 L 899.609375 179.296875 L 0.632812 179.296875 Z M 0.632812 0.890625 " clip-rule="nonzero"/></clipPath><clipPath id="a06a6b7395"><rect x="0" width="900" y="0" height="180"/></clipPath><clipPath id="7e36425b76"><rect x="0" width="900" y="0" height="180"/></clipPath></defs><g transform="matrix(1, 0, 0, 1, 117, 30)"><g clip-path="url(#7e36425b76)"><g clip-path="url(#042bfd874c)"><g><g clip-path="url(#a06a6b7395)"><g fill="#000000" fill-opacity="1"><g transform="translate(1.129801, 144.136384)"><g><path d="M 59.453125 -114.640625 C 73.859375 -114.640625 85.703125 -111.71875 94.984375 -105.875 C 104.265625 -100.03125 109.015625 -91.378906 109.234375 -79.921875 L 109.234375 -77.953125 L 75.328125 -77.953125 L 75.328125 -78.609375 C 75.328125 -81.878906 74.125 -84.609375 71.71875 -86.796875 C 69.320312 -88.984375 65.664062 -90.078125 60.75 -90.078125 C 55.945312 -90.078125 52.265625 -89.363281 49.703125 -87.9375 C 47.140625 -86.519531 45.859375 -84.773438 45.859375 -82.703125 C 45.859375 -79.753906 47.601562 -77.566406 51.09375 -76.140625 C 54.582031 -74.722656 60.207031 -73.253906 67.96875 -71.734375 C 77.03125 -69.878906 84.476562 -67.941406 90.3125 -65.921875 C 96.15625 -63.898438 101.257812 -60.59375 105.625 -56 C 109.988281 -51.414062 112.226562 -45.195312 112.34375 -37.34375 C 112.34375 -24.019531 107.835938 -14.132812 98.828125 -7.6875 C 89.828125 -1.25 77.789062 1.96875 62.71875 1.96875 C 45.144531 1.96875 31.472656 -0.976562 21.703125 -6.875 C 11.929688 -12.769531 7.046875 -23.195312 7.046875 -38.15625 L 41.265625 -38.15625 C 41.265625 -32.476562 42.738281 -28.679688 45.6875 -26.765625 C 48.632812 -24.859375 53.222656 -23.90625 59.453125 -23.90625 C 64.035156 -23.90625 67.828125 -24.394531 70.828125 -25.375 C 73.828125 -26.363281 75.328125 -28.382812 75.328125 -31.4375 C 75.328125 -34.164062 73.660156 -36.210938 70.328125 -37.578125 C 67.003906 -38.941406 61.578125 -40.390625 54.046875 -41.921875 C 44.867188 -43.890625 37.273438 -45.9375 31.265625 -48.0625 C 25.265625 -50.195312 20.023438 -53.71875 15.546875 -58.625 C 11.078125 -63.539062 8.84375 -70.203125 8.84375 -78.609375 C 8.84375 -90.941406 13.617188 -100.03125 23.171875 -105.875 C 32.722656 -111.71875 44.816406 -114.640625 59.453125 -114.640625 Z M 59.453125 -114.640625 "/></g></g></g><g fill="#000000" fill-opacity="1"><g transform="translate(119.363681, 144.136384)"><g><path d="M 87.609375 0 L 82.859375 -15.890625 L 43.390625 -15.890625 L 38.65625 0 L 1.640625 0 L 42.75 -112.671875 L 84.828125 -112.671875 L 125.9375 0 Z M 50.9375 -41.109375 L 75.328125 -41.109375 L 63.546875 -81.234375 L 62.890625 -81.234375 Z M 50.9375 -41.109375 "/></g></g></g><g fill="#000000" fill-opacity="1"><g transform="translate(246.768061, 144.136384)"><g><path d="M 12.125 -112.671875 L 48.3125 -112.671875 L 48.3125 -28.828125 L 106.125 -28.828125 L 106.125 0 L 12.125 0 Z M 12.125 -112.671875 "/></g></g></g><g fill="#000000" fill-opacity="1"><g transform="translate(353.211264, 144.136384)"><g><path d="M 68.125 -114.640625 C 87.5625 -114.640625 102.570312 -109.671875 113.15625 -99.734375 C 123.75 -89.796875 129.046875 -75.328125 129.046875 -56.328125 C 129.046875 -37.335938 123.75 -22.875 113.15625 -12.9375 C 102.570312 -3 87.5625 1.96875 68.125 1.96875 C 48.6875 1.96875 33.703125 -2.96875 23.171875 -12.84375 C 12.640625 -22.726562 7.375 -37.222656 7.375 -56.328125 C 7.375 -75.441406 12.640625 -89.9375 23.171875 -99.8125 C 33.703125 -109.695312 48.6875 -114.640625 68.125 -114.640625 Z M 68.125 -87.609375 C 60.375 -87.609375 54.476562 -85.257812 50.4375 -80.5625 C 46.394531 -75.875 44.375 -69.546875 44.375 -61.578125 L 44.375 -51.09375 C 44.375 -43.125 46.394531 -36.789062 50.4375 -32.09375 C 54.476562 -27.40625 60.375 -25.0625 68.125 -25.0625 C 75.875 -25.0625 81.796875 -27.40625 85.890625 -32.09375 C 89.984375 -36.789062 92.03125 -43.125 92.03125 -51.09375 L 92.03125 -61.578125 C 92.03125 -69.546875 89.984375 -75.875 85.890625 -80.5625 C 81.796875 -85.257812 75.875 -87.609375 68.125 -87.609375 Z M 68.125 -87.609375 "/></g></g></g><g fill="#000000" fill-opacity="1"><g transform="translate(489.622355, 144.136384)"><g><path d="M 68.78125 -114.640625 C 79.59375 -114.640625 89.3125 -113 97.9375 -109.71875 C 106.5625 -106.445312 113.410156 -101.617188 118.484375 -95.234375 C 123.554688 -88.847656 126.09375 -81.066406 126.09375 -71.890625 L 91.546875 -71.890625 C 91.546875 -76.585938 89.46875 -80.378906 85.3125 -83.265625 C 81.164062 -86.160156 76.144531 -87.609375 70.25 -87.609375 C 61.738281 -87.609375 55.296875 -85.34375 50.921875 -80.8125 C 46.554688 -76.28125 44.375 -69.867188 44.375 -61.578125 L 44.375 -51.09375 C 44.375 -42.800781 46.554688 -36.390625 50.921875 -31.859375 C 55.296875 -27.328125 61.738281 -25.0625 70.25 -25.0625 C 76.144531 -25.0625 81.164062 -26.453125 85.3125 -29.234375 C 89.46875 -32.015625 91.546875 -35.585938 91.546875 -39.953125 L 66 -39.953125 L 66 -62.890625 L 126.09375 -62.890625 L 126.09375 0 L 107.4375 0 L 103.828125 -11.140625 C 93.566406 -2.398438 80.140625 1.96875 63.546875 1.96875 C 44.867188 1.96875 30.835938 -2.914062 21.453125 -12.6875 C 12.066406 -22.457031 7.375 -37.003906 7.375 -56.328125 C 7.375 -75.441406 12.691406 -89.9375 23.328125 -99.8125 C 33.972656 -109.695312 49.125 -114.640625 68.78125 -114.640625 Z M 68.78125 -114.640625 "/></g></g></g><g fill="#000000" fill-opacity="1"><g transform="translate(626.033494, 144.136384)"><g><path d="M 68.125 -114.640625 C 87.5625 -114.640625 102.570312 -109.671875 113.15625 -99.734375 C 123.75 -89.796875 129.046875 -75.328125 129.046875 -56.328125 C 129.046875 -37.335938 123.75 -22.875 113.15625 -12.9375 C 102.570312 -3 87.5625 1.96875 68.125 1.96875 C 48.6875 1.96875 33.703125 -2.96875 23.171875 -12.84375 C 12.640625 -22.726562 7.375 -37.222656 7.375 -56.328125 C 7.375 -75.441406 12.640625 -89.9375 23.171875 -99.8125 C 33.703125 -109.695312 48.6875 -114.640625 68.125 -114.640625 Z M 68.125 -87.609375 C 60.375 -87.609375 54.476562 -85.257812 50.4375 -80.5625 C 46.394531 -75.875 44.375 -69.546875 44.375 -61.578125 L 44.375 -51.09375 C 44.375 -43.125 46.394531 -36.789062 50.4375 -32.09375 C 54.476562 -27.40625 60.375 -25.0625 68.125 -25.0625 C 75.875 -25.0625 81.796875 -27.40625 85.890625 -32.09375 C 89.984375 -36.789062 92.03125 -43.125 92.03125 -51.09375 L 92.03125 -61.578125 C 92.03125 -69.546875 89.984375 -75.875 85.890625 -80.5625 C 81.796875 -85.257812 75.875 -87.609375 68.125 -87.609375 Z M 68.125 -87.609375 "/></g></g></g><g fill="#000000" fill-opacity="1"><g transform="translate(762.444585, 144.136384)"><g><path d="M 92.6875 0 L 45.359375 -54.703125 L 45.359375 0 L 12.125 0 L 12.125 -112.671875 L 43.71875 -112.671875 L 91.046875 -57.15625 L 91.046875 -112.671875 L 124.296875 -112.671875 L 124.296875 0 Z M 92.6875 0 "/></g></g></g></g></g></g></g></g></svg>